REM DIRINDEX 1\2,1\3,1\4,1\5
REM DIRNAME cjc155,folder01,folder02,folder03,folder04
TITLE ""
FILE "CD1Track12.mp3" MP3
  TRACK 01 AUDIO
    TITLE "5:cjc155_1278"
    INDEX 01 00:00:00
  TRACK 02 AUDIO
    TITLE "0:"
    INDEX 01 00:01:40
  TRACK 03 AUDIO
    TITLE "2:cjc155_1279"
    INDEX 01 00:02:43
  TRACK 04 AUDIO
    TITLE "3:cjc155_1280"
    INDEX 01 00:05:03
  TRACK 05 AUDIO
    TITLE "2:cjc155_1281"
    INDEX 01 00:07:43
  TRACK 06 AUDIO
    TITLE "3:cjc155_1282"
    INDEX 01 00:09:42
  TRACK 07 AUDIO
    TITLE "2:cjc155_1283"
    INDEX 01 00:11:48
  TRACK 08 AUDIO
    TITLE "3:cjc155_1284"
    INDEX 01 00:12:71
  TRACK 09 AUDIO
    TITLE "2:cjc155_1285"
    INDEX 01 00:14:31
  TRACK 10 AUDIO
    TITLE "3:cjc155_1286"
    INDEX 01 00:16:00
  TRACK 11 AUDIO
    TITLE "2:cjc155_1287"
    INDEX 01 00:17:63
  TRACK 12 AUDIO
    TITLE "3:cjc155_1288"
    INDEX 01 00:19:69
  TRACK 13 AUDIO
    TITLE "2:cjc155_1289"
    INDEX 01 00:22:09
  TRACK 14 AUDIO
    TITLE "3:cjc155_1290"
    INDEX 01 00:24:20
  TRACK 15 AUDIO
    TITLE "2:cjc155_1291"
    INDEX 01 00:26:36
  TRACK 16 AUDIO
    TITLE "3:cjc155_1292"
    INDEX 01 00:27:69
  TRACK 17 AUDIO
    TITLE "2:cjc155_1293"
    INDEX 01 00:29:34
  TRACK 18 AUDIO
    TITLE "3:cjc155_1294"
    INDEX 01 00:31:18
  TRACK 19 AUDIO
    TITLE "2:cjc155_1295"
    INDEX 01 00:33:11
  TRACK 20 AUDIO
    TITLE "3:cjc155_1296"
    INDEX 01 00:35:14
  TRACK 21 AUDIO
    TITLE "2:cjc155_1297"
    INDEX 01 00:37:26
  TRACK 22 AUDIO
    TITLE "3:cjc155_1298"
    INDEX 01 00:39:31
  TRACK 23 AUDIO
    TITLE "2:cjc155_1299"
    INDEX 01 00:41:44
  TRACK 24 AUDIO
    TITLE "3:cjc155_1300"
    INDEX 01 00:42:53
  TRACK 25 AUDIO
    TITLE "2:cjc155_1301"
    INDEX 01 00:43:74
  TRACK 26 AUDIO
    TITLE "3:cjc155_1302"
    INDEX 01 00:46:09
  TRACK 27 AUDIO
    TITLE "2:cjc155_1303"
    INDEX 01 00:48:32
  TRACK 28 AUDIO
    TITLE "3:cjc155_1304"
    INDEX 01 00:50:15
  TRACK 29 AUDIO
    TITLE "2:cjc155_1305"
    INDEX 01 00:52:00
  TRACK 30 AUDIO
    TITLE "3:cjc155_1306"
    INDEX 01 00:53:17
  TRACK 31 AUDIO
    TITLE "2:cjc155_1307"
    INDEX 01 00:54:40
  TRACK 32 AUDIO
    TITLE "3:cjc155_1308"
    INDEX 01 00:56:00
  TRACK 33 AUDIO
    TITLE "2:cjc155_1309"
    INDEX 01 00:57:41
  TRACK 34 AUDIO
    TITLE "3:cjc155_1310"
    INDEX 01 00:59:45
  TRACK 35 AUDIO
    TITLE "2:cjc155_1311"
    INDEX 01 01:01:62
  TRACK 36 AUDIO
    TITLE "3:cjc155_1312"
    INDEX 01 01:02:69
  TRACK 37 AUDIO
    TITLE "2:cjc155_1313"
    INDEX 01 01:04:13
  TRACK 38 AUDIO
    TITLE "3:cjc155_1314"
    INDEX 01 01:06:00
  TRACK 39 AUDIO
    TITLE "2:cjc155_1315"
    INDEX 01 01:08:01
  TRACK 40 AUDIO
    TITLE "3:cjc155_1316"
    INDEX 01 01:09:67
  TRACK 41 AUDIO
    TITLE "2:cjc155_1317"
    INDEX 01 01:11:62
  TRACK 42 AUDIO
    TITLE "3:cjc155_1318"
    INDEX 01 01:13:71
  TRACK 43 AUDIO
    TITLE "2:cjc155_1319"
    INDEX 01 01:16:05
  TRACK 44 AUDIO
    TITLE "3:cjc155_1320"
    INDEX 01 01:18:11
  TRACK 45 AUDIO
    TITLE "2:cjc155_1321"
    INDEX 01 01:20:22
  TRACK 46 AUDIO
    TITLE "3:cjc155_1322"
    INDEX 01 01:21:72
  TRACK 47 AUDIO
    TITLE "2:cjc155_1323"
    INDEX 01 01:23:58
  TRACK 48 AUDIO
    TITLE "3:cjc155_1324"
    INDEX 01 01:25:08
  TRACK 49 AUDIO
    TITLE "2:cjc155_1325"
    INDEX 01 01:26:38
  TRACK 50 AUDIO
    TITLE "3:cjc155_1326"
    INDEX 01 01:28:00
  TRACK 51 AUDIO
    TITLE "2:cjc155_1327"
    INDEX 01 01:29:41
  TRACK 52 AUDIO
    TITLE "3:cjc155_1328"
    INDEX 01 01:31:69
  TRACK 53 AUDIO
    TITLE "2:cjc155_1329"
    INDEX 01 01:34:22
  TRACK 54 AUDIO
    TITLE "3:cjc155_1330"
    INDEX 01 01:35:55
  TRACK 55 AUDIO
    TITLE "2:cjc155_1331"
    INDEX 01 01:37:13
  TRACK 56 AUDIO
    TITLE "3:cjc155_1332"
    INDEX 01 01:39:15
  TRACK 57 AUDIO
    TITLE "2:cjc155_1333"
    INDEX 01 01:41:20
  TRACK 58 AUDIO
    TITLE "3:cjc155_1334"
    INDEX 01 01:43:02
  TRACK 59 AUDIO
    TITLE "2:cjc155_1335"
    INDEX 01 01:44:58
  TRACK 60 AUDIO
    TITLE "3:cjc155_1336"
    INDEX 01 01:45:69
  TRACK 61 AUDIO
    TITLE "2:cjc155_1337"
    INDEX 01 01:47:17
  TRACK 62 AUDIO
    TITLE "3:cjc155_1338"
    INDEX 01 01:48:48
  TRACK 63 AUDIO
    TITLE "2:cjc155_1339"
    INDEX 01 01:50:15
  TRACK 64 AUDIO
    TITLE "3:cjc155_1340"
    INDEX 01 01:52:73
  TRACK 65 AUDIO
    TITLE "2:cjc155_1341"
    INDEX 01 01:55:65
  TRACK 66 AUDIO
    TITLE "3:cjc155_1342"
    INDEX 01 01:57:39
  TRACK 67 AUDIO
    TITLE "2:cjc155_1343"
    INDEX 01 01:59:20
  TRACK 68 AUDIO
    TITLE "3:cjc155_1344"
    INDEX 01 02:00:71
  TRACK 69 AUDIO
    TITLE "2:cjc155_1345"
    INDEX 01 02:02:50
  TRACK 70 AUDIO
    TITLE "3:cjc155_1346"
    INDEX 01 02:05:52
  TRACK 71 AUDIO
    TITLE "2:cjc155_1347"
    INDEX 01 02:08:60
  TRACK 72 AUDIO
    TITLE "3:cjc155_1348"
    INDEX 01 02:09:52
  TRACK 73 AUDIO
    TITLE "2:cjc155_1349"
    INDEX 01 02:10:53
  TRACK 74 AUDIO
    TITLE "3:cjc155_1350"
    INDEX 01 02:12:01
  TRACK 75 AUDIO
    TITLE "2:cjc155_1351"
    INDEX 01 02:13:38
  TRACK 76 AUDIO
    TITLE "3:cjc155_1352"
    INDEX 01 02:14:55
  TRACK 77 AUDIO
    TITLE "2:cjc155_1353"
    INDEX 01 02:16:07
  TRACK 78 AUDIO
    TITLE "3:cjc155_1354"
    INDEX 01 02:17:49
  TRACK 79 AUDIO
    TITLE "2:cjc155_1355"
    INDEX 01 02:19:17
  TRACK 80 AUDIO
    TITLE "3:cjc155_1356"
    INDEX 01 02:21:39
  TRACK 81 AUDIO
    TITLE "2:cjc155_1357"
    INDEX 01 02:23:66
  TRACK 82 AUDIO
    TITLE "3:cjc155_1358"
    INDEX 01 02:25:00
  TRACK 83 AUDIO
    TITLE "2:cjc155_1359"
    INDEX 01 02:26:23
  TRACK 84 AUDIO
    TITLE "3:cjc155_1360"
    INDEX 01 02:28:59
  TRACK 85 AUDIO
    TITLE "2:cjc155_1361"
    INDEX 01 02:31:22
  TRACK 86 AUDIO
    TITLE "3:cjc155_1362"
    INDEX 01 02:32:43
  TRACK 87 AUDIO
    TITLE "2:cjc155_1363"
    INDEX 01 02:33:72
  TRACK 88 AUDIO
    TITLE "3:cjc155_1364"
    INDEX 01 02:35:67
  TRACK 89 AUDIO
    TITLE "2:cjc155_1365"
    INDEX 01 02:37:70
  TRACK 90 AUDIO
    TITLE "3:cjc155_1366"
    INDEX 01 02:39:59
  TRACK 91 AUDIO
    TITLE "2:cjc155_1367"
    INDEX 01 02:41:58
  TRACK 92 AUDIO
    TITLE "3:cjc155_1368"
    INDEX 01 02:43:31
  TRACK 93 AUDIO
    TITLE "2:cjc155_1369"
    INDEX 01 02:45:14
  TRACK 94 AUDIO
    TITLE "3:cjc155_1370"
    INDEX 01 02:46:43
  TRACK 95 AUDIO
    TITLE "2:cjc155_1371"
    INDEX 01 02:48:09
  TRACK 96 AUDIO
    TITLE "3:cjc155_1372"
    INDEX 01 02:49:67
  TRACK 97 AUDIO
    TITLE "2:cjc155_1373"
    INDEX 01 02:51:58
  TRACK 98 AUDIO
    TITLE "3:cjc155_1374"
    INDEX 01 02:53:02
  TRACK 99 AUDIO
    TITLE "2:cjc155_1375"
    INDEX 01 02:54:29
  TRACK 100 AUDIO
    TITLE "3:cjc155_1376"
    INDEX 01 02:56:46
  TRACK 101 AUDIO
    TITLE "2:cjc155_1377"
    INDEX 01 02:58:62
  TRACK 102 AUDIO
    TITLE "3:cjc155_1378"
    INDEX 01 03:00:14
  TRACK 103 AUDIO
    TITLE "2:cjc155_1379"
    INDEX 01 03:01:49
  TRACK 104 AUDIO
    TITLE "3:cjc155_1380"
    INDEX 01 03:03:53
  TRACK 105 AUDIO
    TITLE "2:cjc155_1381"
    INDEX 01 03:05:68
  TRACK 106 AUDIO
    TITLE "3:cjc155_1382"
    INDEX 01 03:07:14
  TRACK 107 AUDIO
    TITLE "2:cjc155_1383"
    INDEX 01 03:08:43
  TRACK 108 AUDIO
    TITLE "3:cjc155_1384"
    INDEX 01 03:11:14
  TRACK 109 AUDIO
    TITLE "2:cjc155_1385"
    INDEX 01 03:13:68
  TRACK 110 AUDIO
    TITLE "3:cjc155_1386"
    INDEX 01 03:15:00
  TRACK 111 AUDIO
    TITLE "2:cjc155_1387"
    INDEX 01 03:16:15
  TRACK 112 AUDIO
    TITLE "3:cjc155_1388"
    INDEX 01 03:17:38
  TRACK 113 AUDIO
    TITLE "2:cjc155_1389"
    INDEX 01 03:19:00
  TRACK 114 AUDIO
    TITLE "3:cjc155_1390"
    INDEX 01 03:21:26
  TRACK 115 AUDIO
    TITLE "2:cjc155_1391"
    INDEX 01 03:23:66
  TRACK 116 AUDIO
    TITLE "3:cjc155_1392"
    INDEX 01 03:25:00
  TRACK 117 AUDIO
    TITLE "2:cjc155_1393"
    INDEX 01 03:26:19
  TRACK 118 AUDIO
    TITLE "3:cjc155_1394"
    INDEX 01 03:27:40
  TRACK 119 AUDIO
    TITLE "2:cjc155_1395"
    INDEX 01 03:28:67
  TRACK 120 AUDIO
    TITLE "3:cjc155_1396"
    INDEX 01 03:30:23
  TRACK 121 AUDIO
    TITLE "2:cjc155_1397"
    INDEX 01 03:31:62
  TRACK 122 AUDIO
    TITLE "3:cjc155_1398"
    INDEX 01 03:33:57
  TRACK 123 AUDIO
    TITLE "2:cjc155_1399"
    INDEX 01 03:35:57
  TRACK 124 AUDIO
    TITLE "3:cjc155_1400"
    INDEX 01 03:37:45
  TRACK 125 AUDIO
    TITLE "2:cjc155_1401"
    INDEX 01 03:39:34
  TRACK 126 AUDIO
    TITLE "3:cjc155_1402"
    INDEX 01 03:41:03
  TRACK 127 AUDIO
    TITLE "2:cjc155_1403"
    INDEX 01 03:42:54
  TRACK 128 AUDIO
    TITLE "3:cjc155_1404"
    INDEX 01 03:45:03
  TRACK 129 AUDIO
    TITLE "2:cjc155_1405"
    INDEX 01 03:47:33
  TRACK 130 AUDIO
    TITLE "3:cjc155_1406"
    INDEX 01 03:50:31
  TRACK 131 AUDIO
    TITLE "2:cjc155_1407"
    INDEX 01 03:53:40
  TRACK 132 AUDIO
    TITLE "3:cjc155_1408"
    INDEX 01 03:55:21
  TRACK 133 AUDIO
    TITLE "2:cjc155_1409"
    INDEX 01 03:57:06
  TRACK 134 AUDIO
    TITLE "3:cjc155_1410"
    INDEX 01 03:58:27
  TRACK 135 AUDIO
    TITLE "2:cjc155_1411"
    INDEX 01 03:59:58
  TRACK 136 AUDIO
    TITLE "3:cjc155_1412"
    INDEX 01 04:01:12
  TRACK 137 AUDIO
    TITLE "2:cjc155_1413"
    INDEX 01 04:02:52
  TRACK 138 AUDIO
    TITLE "3:cjc155_1414"
    INDEX 01 04:05:68
  TRACK 139 AUDIO
    TITLE "2:cjc155_1415"
    INDEX 01 04:09:21
  TRACK 140 AUDIO
    TITLE "3:cjc155_1416"
    INDEX 01 04:12:02
  TRACK 141 AUDIO
    TITLE "2:cjc155_1417"
    INDEX 01 04:14:67
  TRACK 142 AUDIO
    TITLE "3:cjc155_1418"
    INDEX 01 04:16:15
  TRACK 143 AUDIO
    TITLE "2:cjc155_1419"
    INDEX 01 04:17:48
  TRACK 144 AUDIO
    TITLE "3:cjc155_1420"
    INDEX 01 04:19:35
  TRACK 145 AUDIO
    TITLE "2:cjc155_1421"
    INDEX 01 04:21:28
  TRACK 146 AUDIO
    TITLE "3:cjc155_1422"
    INDEX 01 04:23:37
  TRACK 147 AUDIO
    TITLE "2:cjc155_1423"
    INDEX 01 04:25:55
  TRACK 148 AUDIO
    TITLE "3:cjc155_1424"
    INDEX 01 04:27:11
  TRACK 149 AUDIO
    TITLE "2:cjc155_1425"
    INDEX 01 04:28:42
  TRACK 150 AUDIO
    TITLE "3:cjc155_1426"
    INDEX 01 04:30:06
  TRACK 151 AUDIO
    TITLE "2:cjc155_1427"
    INDEX 01 04:31:46
  TRACK 152 AUDIO
    TITLE "3:cjc155_1428"
    INDEX 01 04:33:18
  TRACK 153 AUDIO
    TITLE "2:cjc155_1429"
    INDEX 01 04:34:68
  TRACK 154 AUDIO
    TITLE "3:cjc155_1430"
    INDEX 01 04:36:30
  TRACK 155 AUDIO
    TITLE "2:cjc155_1431"
    INDEX 01 04:37:70
  TRACK 156 AUDIO
    TITLE "3:cjc155_1432"
    INDEX 01 04:39:61
  TRACK 157 AUDIO
    TITLE "2:cjc155_1433"
    INDEX 01 04:41:60
  TRACK 158 AUDIO
    TITLE "3:cjc155_1434"
    INDEX 01 04:43:51
  TRACK 159 AUDIO
    TITLE "2:cjc155_1435"
    INDEX 01 04:45:48
  TRACK 160 AUDIO
    TITLE "3:cjc155_1436"
    INDEX 01 04:47:51
  TRACK 161 AUDIO
    TITLE "2:cjc155_1437"
    INDEX 01 04:49:64
  TRACK 162 AUDIO
    TITLE "3:cjc155_1438"
    INDEX 01 04:52:01
  TRACK 163 AUDIO
    TITLE "2:cjc155_1439"
    INDEX 01 04:54:26
  TRACK 164 AUDIO
    TITLE "3:cjc155_1440"
    INDEX 01 04:56:23
  TRACK 165 AUDIO
    TITLE "2:cjc155_1441"
    INDEX 01 04:58:33
  TRACK 166 AUDIO
    TITLE "3:cjc155_1442"
    INDEX 01 05:00:26
  TRACK 167 AUDIO
    TITLE "2:cjc155_1443"
    INDEX 01 05:02:13
  TRACK 168 AUDIO
    TITLE "3:cjc155_1444"
    INDEX 01 05:04:36
  TRACK 169 AUDIO
    TITLE "2:cjc155_1445"
    INDEX 01 05:06:66
  TRACK 170 AUDIO
    TITLE "3:cjc155_1446"
    INDEX 01 05:08:32
  TRACK 171 AUDIO
    TITLE "2:cjc155_1447"
    INDEX 01 05:10:03
  TRACK 172 AUDIO
    TITLE "3:cjc155_1448"
    INDEX 01 05:12:31
  TRACK 173 AUDIO
    TITLE "2:cjc155_1449"
    INDEX 01 05:14:71
  TRACK 174 AUDIO
    TITLE "3:cjc155_1450"
    INDEX 01 05:17:42
  TRACK 175 AUDIO
    TITLE "2:cjc155_1451"
    INDEX 01 05:20:21
  TRACK 176 AUDIO
    TITLE "3:cjc155_1452"
    INDEX 01 05:21:48
  TRACK 177 AUDIO
    TITLE "2:cjc155_1453"
    INDEX 01 05:23:14
  TRACK 178 AUDIO
    TITLE "3:cjc155_1454"
    INDEX 01 05:24:64
  TRACK 179 AUDIO
    TITLE "2:cjc155_1455"
    INDEX 01 05:26:43
  TRACK 180 AUDIO
    TITLE "3:cjc155_1456"
    INDEX 01 05:28:28
  TRACK 181 AUDIO
    TITLE "2:cjc155_1457"
    INDEX 01 05:30:21
  TRACK 182 AUDIO
    TITLE "3:cjc155_1458"
    INDEX 01 05:32:71
  TRACK 183 AUDIO
    TITLE "2:cjc155_1459"
    INDEX 01 05:35:56
  TRACK 184 AUDIO
    TITLE "3:cjc155_1460"
    INDEX 01 05:37:57
  TRACK 185 AUDIO
    TITLE "2:cjc155_1461"
    INDEX 01 05:39:63
  TRACK 186 AUDIO
    TITLE "3:cjc155_1462"
    INDEX 01 05:41:17
  TRACK 187 AUDIO
    TITLE "2:cjc155_1463"
    INDEX 01 05:42:56
  TRACK 188 AUDIO
    TITLE "3:cjc155_1464"
    INDEX 01 05:44:27
  TRACK 189 AUDIO
    TITLE "2:cjc155_1465"
    INDEX 01 05:46:11
  TRACK 190 AUDIO
    TITLE "3:cjc155_1466"
    INDEX 01 05:48:06
  TRACK 191 AUDIO
    TITLE "2:cjc155_1467"
    INDEX 01 05:50:10
  TRACK 192 AUDIO
    TITLE "3:cjc155_1468"
    INDEX 01 05:51:43
  TRACK 193 AUDIO
    TITLE "2:cjc155_1469"
    INDEX 01 05:53:13
  TRACK 194 AUDIO
    TITLE "3:cjc155_1470"
    INDEX 01 05:55:66
  TRACK 195 AUDIO
    TITLE "2:cjc155_1471"
    INDEX 01 05:58:49
  TRACK 196 AUDIO
    TITLE "3:cjc155_1472"
    INDEX 01 06:00:44
  TRACK 197 AUDIO
    TITLE "2:cjc155_1473"
    INDEX 01 06:02:49
  TRACK 198 AUDIO
    TITLE "3:cjc155_1474"
    INDEX 01 06:06:21
  TRACK 199 AUDIO
    TITLE "2:cjc155_1475"
    INDEX 01 06:09:74
  TRACK 200 AUDIO
    TITLE "3:cjc155_1476"
    INDEX 01 06:11:15
  TRACK 201 AUDIO
    TITLE "2:cjc155_1477"
    INDEX 01 06:12:37
  TRACK 202 AUDIO
    TITLE "3:cjc155_1478"
    INDEX 01 06:14:21
  TRACK 203 AUDIO
    TITLE "2:cjc155_1479"
    INDEX 01 06:16:08
  TRACK 204 AUDIO
    TITLE "3:cjc155_1480"
    INDEX 01 06:17:43
  TRACK 205 AUDIO
    TITLE "2:cjc155_1481"
    INDEX 01 06:18:73
  TRACK 206 AUDIO
    TITLE "3:cjc155_1482"
    INDEX 01 06:20:57
  TRACK 207 AUDIO
    TITLE "2:cjc155_1483"
    INDEX 01 06:22:50
  TRACK 208 AUDIO
    TITLE "3:cjc155_1484"
    INDEX 01 06:24:64
  TRACK 209 AUDIO
    TITLE "2:cjc155_1485"
    INDEX 01 06:27:14
  TRACK 210 AUDIO
    TITLE "3:cjc155_1486"
    INDEX 01 06:29:10
  TRACK 211 AUDIO
    TITLE "2:cjc155_1487"
    INDEX 01 06:31:19
  TRACK 212 AUDIO
    TITLE "3:cjc155_1488"
    INDEX 01 06:32:72
  TRACK 213 AUDIO
    TITLE "2:cjc155_1489"
    INDEX 01 06:34:49
  TRACK 214 AUDIO
    TITLE "3:cjc155_1490"
    INDEX 01 06:36:03
  TRACK 215 AUDIO
    TITLE "2:cjc155_1491"
    INDEX 01 06:37:32
  TRACK 216 AUDIO
    TITLE "3:cjc155_1492"
    INDEX 01 06:39:11
  TRACK 217 AUDIO
    TITLE "2:cjc155_1493"
    INDEX 01 06:40:73
  TRACK 218 AUDIO
    TITLE "3:cjc155_1494"
    INDEX 01 06:41:69
  TRACK 219 AUDIO
    TITLE "2:cjc155_1495"
    INDEX 01 06:42:70
  TRACK 220 AUDIO
    TITLE "3:cjc155_1496"
    INDEX 01 06:45:35
  TRACK 221 AUDIO
    TITLE "2:cjc155_1497"
    INDEX 01 06:48:14
  TRACK 222 AUDIO
    TITLE "3:cjc155_1498"
    INDEX 01 06:49:43
  TRACK 223 AUDIO
    TITLE "2:cjc155_1499"
    INDEX 01 06:51:06
  TRACK 224 AUDIO
    TITLE "3:cjc155_1500"
    INDEX 01 06:52:25
  TRACK 225 AUDIO
    TITLE "2:cjc155_1501"
    INDEX 01 06:53:48
  TRACK 226 AUDIO
    TITLE "3:cjc155_1502"
    INDEX 01 06:55:10
  TRACK 227 AUDIO
    TITLE "2:cjc155_1503"
    INDEX 01 06:56:58
  TRACK 228 AUDIO
    TITLE "3:cjc155_1504"
    INDEX 01 06:57:71
  TRACK 229 AUDIO
    TITLE "2:cjc155_1505"
    INDEX 01 06:59:15
  TRACK 230 AUDIO
    TITLE "3:cjc155_1506"
    INDEX 01 07:01:05
  TRACK 231 AUDIO
    TITLE "2:cjc155_1507"
    INDEX 01 07:03:00
  TRACK 232 AUDIO
    TITLE "3:cjc155_1508"
    INDEX 01 07:04:46
  TRACK 233 AUDIO
    TITLE "2:cjc155_1509"
    INDEX 01 07:06:25
  TRACK 234 AUDIO
    TITLE "3:cjc155_1510"
    INDEX 01 07:08:03
  TRACK 235 AUDIO
    TITLE "2:cjc155_1511"
    INDEX 01 07:09:55
  TRACK 236 AUDIO
    TITLE "3:cjc155_1512"
    INDEX 01 07:12:40
  TRACK 237 AUDIO
    TITLE "2:cjc155_1513"
    INDEX 01 07:15:26
  TRACK 238 AUDIO
    TITLE "3:cjc155_1514"
    INDEX 01 07:17:60
  TRACK 239 AUDIO
    TITLE "0:"
    INDEX 01 07:20:22
